<?xml version="1.0" encoding="utf-8"?>
<!-- Generator: Adobe Illustrator 16.0.0, SVG Export Plug-In . SVG Version: 6.00 Build 0)  -->
<!DOCTYPE svg PUBLIC "-//W3C//DTD SVG 1.1//EN" "http://www.w3.org/Graphics/SVG/1.1/DTD/svg11.dtd">
<svg version="1.1" id="Layer_1" xmlns="http://www.w3.org/2000/svg" xmlns:xlink="http://www.w3.org/1999/xlink" x="0px" y="0px"
	 width="193.536px" height="194px" viewBox="0 0 193.536 194" enable-background="new 0 0 193.536 194" xml:space="preserve">
<path fill-rule="evenodd" clip-rule="evenodd" fill="#ED1459" d="M96.536,0c53.572,0,97,43.428,97,97s-43.428,97-97,97
	s-97-43.428-97-97S42.964,0,96.536,0z"/>
<path fill-rule="evenodd" clip-rule="evenodd" fill="#FFFFFF" d="M31.536,44.5c16.665,0,33.335,0,50,0c0,2,0,4,0,6
	c4.666,4.333,9.334,8.667,14,13c0.667,0,1.333,0,2,0c4.666-4.666,9.334-9.334,14-14c0-1.667,0-3.333,0-5c16.665,0,33.335,0,50,0
	c0,34.997,0,70.003,0,105c-16.665,0-33.335,0-50,0c0-15.665,0-31.335,0-47c-5.333,5-10.667,10-16,15c-4.666-4.333-9.334-8.667-14-13
	c0,14.999,0,30.001,0,45c-16.665,0-33.335,0-50,0C31.536,114.503,31.536,79.497,31.536,44.5z"/>
</svg>
